<svg width="109" height="48" viewBox="0 0 109 48" fill="none" xmlns="http://www.w3.org/2000/svg">
<g clip-path="url(#clip0_44_24)">
<path d="M50.7039 19.7471L48.2188 24.4351H53.2521C53.265 23.4995 53.0372 22.5764 52.5908 21.7552C52.1444 20.9339 51.4945 20.2422 50.7039 19.7471V19.7471Z" fill="#E9B464"/>
<path d="M58.3026 19.7471L60.7878 24.4351H55.7544C55.7418 23.4995 55.9698 22.5766 56.4162 21.7554C56.8626 20.9342 57.5123 20.2425 58.3026 19.7471V19.7471Z" fill="#E9B464"/>
<path d="M47.2979 24.2912L53.9977 11.6437L52.1744 8.20098C51.783 7.40677 51.5572 6.54066 51.5109 5.65573L45.4251 17.1111C44.7808 18.325 44.6158 19.7383 44.9629 21.069C45.31 22.3997 46.1437 23.5503 47.2979 24.2912V24.2912Z" fill="#E9B464"/>
<path d="M53.0321 7.92691L53.102 8.05709L61.7054 24.2912C62.8591 23.5464 63.6914 22.3928 64.0365 21.0598C64.3816 19.7267 64.2144 18.3121 63.5679 17.0973L54.7105 0.419637L54.4973 0.00170898L52.9417 2.99229C52.5729 3.76503 52.389 4.61361 52.4047 5.47036C52.4204 6.32711 52.6353 7.16832 53.0321 7.92691Z" fill="#E9B464"/>
<path d="M4.74343 31.3908L0 41.1384H1.58114L2.68982 38.8553H8.44641L9.55509 41.1384H11.2062L6.49003 31.3908H4.74343ZM3.39255 37.4045L4.81166 34.479C4.89524 34.3077 4.98223 34.1365 5.06239 33.9566C5.14256 33.7768 5.23296 33.614 5.31142 33.4342C5.38988 33.2544 5.48198 33.0728 5.55362 32.8775L5.56556 32.8501L5.57579 32.8775C5.64914 33.0642 5.72589 33.2406 5.80435 33.4068C5.88281 33.5729 5.96298 33.7408 6.04655 33.9086C6.13013 34.0765 6.21712 34.2512 6.29558 34.4225L7.74368 37.4028L3.39255 37.4045Z" fill="white"/>
<path d="M15.9478 32.8399H19.6371V41.1385H21.1347V32.8399H24.9059V31.3908H15.9478V32.8399Z" fill="white"/>
<path d="M39.8696 35.6112H33.0879V31.3908H31.5903V41.1385H33.0879V37.0585H39.8696V41.1385H41.3672V31.3908H39.8696V35.6112Z" fill="white"/>
<path d="M49.1875 41.1385H57.245V39.6911H50.6868V36.8633H56.4826V35.4159H50.6868V32.8399H57.245V31.3908H49.1875V41.1385Z" fill="white"/>
<path d="M86.576 31.3908L81.8325 41.1384H83.4137L84.5223 38.8553H90.2789L91.3876 41.1384H93.0387L88.3225 31.3908H86.576ZM85.2251 37.4045L86.6459 34.479C86.7277 34.3077 86.8164 34.1365 86.8949 33.9566C86.9734 33.7768 87.0655 33.614 87.1439 33.4342C87.2224 33.2544 87.3145 33.0728 87.3861 32.8775C87.3908 32.8687 87.3948 32.8596 87.3981 32.8501L87.4083 32.8775C87.4817 33.0642 87.5584 33.2406 87.6369 33.4068C87.7153 33.5729 87.7955 33.7408 87.8791 33.9086C87.9627 34.0765 88.0496 34.2512 88.1298 34.4225L89.5762 37.4028L85.2251 37.4045Z" fill="white"/>
<path d="M109 41.1539L106.15 37.36C106.344 37.297 106.531 37.2174 106.711 37.1219C107.216 36.8515 107.645 36.4588 107.96 35.9794C108.273 35.5073 108.437 34.9518 108.432 34.3848C108.437 33.8477 108.287 33.3207 108.001 32.8673C107.718 32.4155 107.324 32.0441 106.858 31.7882C106.376 31.5217 105.834 31.3849 105.284 31.3908H99.6123V41.1385H101.11V37.5415H104.432L107.127 41.1385L109 41.1539ZM101.11 32.8399H104.862C105.199 32.8362 105.533 32.9076 105.84 33.0488C106.121 33.1736 106.369 33.3645 106.561 33.6055C106.738 33.8264 106.833 34.1016 106.831 34.3848C106.834 34.6918 106.739 34.9917 106.561 35.2412C106.377 35.503 106.133 35.7163 105.85 35.863C105.548 36.0209 105.213 36.1021 104.873 36.0993H101.12L101.11 32.8399Z" fill="white"/>
<path d="M74.846 31.3908H73.7613V34.5938V39.0043L66.2461 31.3908H64.7622V41.1385H66.2598V39.6569V37.0859V33.7391L73.7476 41.1385H75.2588V31.3908H74.846Z" fill="white"/>
<path d="M31.5869 47.952V45.1533H33.4853C33.6244 45.151 33.7621 45.1809 33.8878 45.2406C34.0014 45.2938 34.0982 45.3774 34.1676 45.4822C34.237 45.5902 34.2727 45.7167 34.2699 45.8453C34.2725 45.9466 34.2527 46.0472 34.2119 46.1399C34.1721 46.2239 34.1138 46.2977 34.0414 46.3557C33.9718 46.4125 33.8919 46.455 33.806 46.4807V46.4979C33.9056 46.5184 33.9997 46.5599 34.0823 46.6195C34.164 46.6799 34.2301 46.7592 34.275 46.8507C34.3251 46.9541 34.3497 47.0681 34.3467 47.183C34.3517 47.3326 34.3113 47.4801 34.2307 47.606C34.1546 47.7198 34.0474 47.809 33.922 47.863C33.7868 47.9212 33.6409 47.9504 33.4938 47.9486L31.5869 47.952ZM32.2402 46.2769H33.2636C33.3226 46.2778 33.381 46.2649 33.4341 46.2392C33.4822 46.2149 33.522 46.1767 33.5484 46.1296C33.5751 46.0815 33.5887 46.0271 33.5877 45.972C33.5907 45.93 33.5844 45.8878 33.5694 45.8484C33.5544 45.809 33.5309 45.7735 33.5007 45.7442C33.4385 45.6899 33.3579 45.6617 33.2755 45.6654H32.2248L32.2402 46.2769ZM32.2402 47.4296H33.3403C33.4269 47.4337 33.5118 47.4056 33.5791 47.3508C33.6124 47.3189 33.6382 47.2798 33.6544 47.2365C33.6707 47.1932 33.677 47.1468 33.6729 47.1008C33.6741 47.0413 33.6606 46.9825 33.6337 46.9295C33.6077 46.8796 33.5664 46.8394 33.516 46.8147C33.4537 46.7853 33.3853 46.7712 33.3165 46.7736H32.2402V47.4296Z" fill="white"/>
<path d="M37.3658 47.952V46.825L36.1445 45.1516H36.9104L37.6984 46.2752H37.7257L38.5137 45.1516H39.2437L38.0225 46.825V47.9503L37.3658 47.952Z" fill="white"/>
<path d="M43.3545 47.952L44.5843 45.1533H45.3501L46.5799 47.952H45.8703L45.6401 47.4228H44.2431L44.0214 47.952H43.3545ZM44.4615 46.9089H45.4354L45.1591 46.2444C45.1488 46.2152 45.1335 46.1758 45.1147 46.1279C45.096 46.0799 45.0772 46.0303 45.0584 45.9754L45.0039 45.8213C44.9851 45.7716 44.9732 45.7356 44.9646 45.7117H44.9356C44.9169 45.7648 44.8947 45.8264 44.8691 45.8949L44.7941 46.0919C44.7702 46.1553 44.7497 46.2067 44.7327 46.2444L44.4615 46.9089Z" fill="white"/>
<path d="M48.5957 47.952V45.1533H49.9193C50.1985 45.1458 50.476 45.199 50.7329 45.3091C50.9479 45.4075 51.1269 45.571 51.2446 45.7767C51.3635 46.018 51.4254 46.2835 51.4254 46.5527C51.4254 46.8218 51.3635 47.0873 51.2446 47.3286C51.1268 47.5338 50.9478 47.6967 50.7329 47.7944C50.4762 47.9052 50.1986 47.959 49.9193 47.952H48.5957ZM49.249 47.4228H49.9039C50.0248 47.4238 50.1451 47.4059 50.2604 47.3697C50.3603 47.3376 50.4522 47.2844 50.5299 47.2138C50.6061 47.1442 50.6646 47.0572 50.7005 46.9603C50.7433 46.8477 50.7641 46.7279 50.7619 46.6075V46.4978C50.7643 46.3774 50.7434 46.2575 50.7005 46.145C50.6646 46.0476 50.6061 45.9601 50.5299 45.8898C50.4521 45.8197 50.3602 45.7671 50.2604 45.7356C50.1453 45.6986 50.0249 45.6806 49.9039 45.6825H49.2541L49.249 47.4228Z" fill="white"/>
<path d="M53.6104 47.952V45.1533H54.6167L55.1045 46.5424C55.1199 46.5903 55.1403 46.652 55.1625 46.7274L55.2341 46.9535C55.258 47.0305 55.2785 47.0973 55.2955 47.1573H55.3279C55.3416 47.1059 55.3586 47.0442 55.3808 46.9723C55.403 46.9004 55.4235 46.825 55.4473 46.7496C55.4712 46.6743 55.4917 46.6058 55.5139 46.5458L55.9966 45.1533H56.9824V47.952H56.3343V46.4824C56.3343 46.3985 56.3343 46.3112 56.3343 46.217C56.3343 46.1227 56.3343 46.0457 56.3343 45.9617C56.3343 45.8778 56.3343 45.8299 56.3343 45.7905H56.3019L56.2558 45.9532L56.191 46.1724L56.1279 46.3728L55.5633 47.9452H54.9868L54.4188 46.3728C54.4001 46.3129 54.3779 46.2478 54.3557 46.1758C54.3335 46.1039 54.3131 46.0354 54.2943 45.9669C54.2801 45.909 54.263 45.8518 54.2431 45.7956H54.2124C54.2124 45.8487 54.2124 45.9155 54.2124 45.9943C54.2124 46.0731 54.2124 46.1553 54.2124 46.2409C54.2124 46.3266 54.2124 46.4122 54.2124 46.4824V47.9503L53.6104 47.952Z" fill="white"/>
<path d="M59.2852 47.952V45.1533H59.9384V47.952H59.2852Z" fill="white"/>
<path d="M63.6741 48C63.3819 48.0092 63.0911 47.9555 62.8212 47.8424C62.5999 47.7437 62.4171 47.5745 62.301 47.3611C62.1771 47.1098 62.1184 46.8311 62.1305 46.551C62.1305 46.0748 62.2635 45.7145 62.5296 45.4702C62.7957 45.2258 63.1783 45.1036 63.6775 45.1036C63.9303 45.0988 64.1816 45.143 64.4177 45.2338C64.6211 45.3095 64.7987 45.442 64.9294 45.6158C65.0552 45.796 65.1192 46.0124 65.1119 46.2324H64.4536C64.4572 46.1146 64.4218 45.9989 64.3529 45.9035C64.2816 45.8114 64.1858 45.7413 64.0766 45.7014C63.9456 45.6508 63.8059 45.6264 63.6655 45.6295C63.5001 45.6245 63.3358 45.6591 63.1863 45.7305C63.0601 45.7962 62.9576 45.8998 62.8929 46.0268C62.823 46.1719 62.7891 46.3317 62.794 46.4927V46.6075C62.7889 46.7702 62.8229 46.9317 62.8929 47.0785C62.9578 47.2049 63.0604 47.3079 63.1863 47.3731C63.3355 47.4453 63.5 47.4799 63.6655 47.4742C63.8111 47.4783 63.9562 47.4557 64.0937 47.4074C64.2051 47.3698 64.3025 47.2994 64.3734 47.2053C64.442 47.111 64.4774 46.9965 64.474 46.8798H65.1017C65.109 47.0979 65.0456 47.3125 64.9209 47.4913C64.7941 47.6632 64.6206 47.7947 64.4212 47.8698C64.1828 47.9611 63.9291 48.0053 63.6741 48V48Z" fill="white"/>
<path d="M67.2729 47.9521V45.1533H69.1628C69.3377 45.1462 69.5113 45.1858 69.666 45.2681C69.7944 45.3414 69.8978 45.4518 69.9628 45.5849C70.0291 45.7244 70.0624 45.8774 70.06 46.032C70.0625 46.2 70.0201 46.3656 69.9372 46.5116C69.85 46.6579 69.7202 46.7739 69.5654 46.8439L70.1419 47.9521H69.4153L68.9206 46.9569H67.9262V47.9521H67.2729ZM67.9262 46.4396H69.0178C69.0692 46.4426 69.1205 46.4346 69.1685 46.4159C69.2165 46.3973 69.2599 46.3686 69.2959 46.3317C69.3645 46.2529 69.4 46.1503 69.3948 46.0457C69.3963 45.9768 69.381 45.9086 69.3504 45.847C69.321 45.7931 69.2766 45.7491 69.2225 45.7203C69.1584 45.6906 69.0884 45.6759 69.0178 45.6774H67.9262V46.4396Z" fill="white"/>
<path d="M73.7408 48C73.4443 48.0051 73.1501 47.9467 72.8778 47.8287C72.6464 47.7282 72.4515 47.5583 72.32 47.3423C72.1922 47.0964 72.1255 46.8232 72.1255 46.5458C72.1255 46.2685 72.1922 45.9952 72.32 45.7494C72.4514 45.5329 72.6462 45.3624 72.8778 45.2612C73.4336 45.042 74.0515 45.042 74.6073 45.2612C74.8388 45.3624 75.0336 45.5329 75.165 45.7494C75.2928 45.9952 75.3596 46.2685 75.3596 46.5458C75.3596 46.8232 75.2928 47.0964 75.165 47.3423C75.0335 47.5583 74.8387 47.7282 74.6073 47.8287C74.3338 47.9468 74.0385 48.0052 73.7408 48V48ZM73.7408 47.4742C73.8737 47.476 74.0061 47.4569 74.1331 47.4176C74.2437 47.3828 74.3456 47.3244 74.4316 47.2464C74.516 47.1715 74.5815 47.0776 74.6226 46.9723C74.6688 46.8546 74.6914 46.7289 74.6892 46.6023V46.4927C74.6917 46.3651 74.6691 46.2382 74.6226 46.1193C74.5809 46.0153 74.5155 45.9226 74.4316 45.8487C74.345 45.7714 74.2434 45.7131 74.1331 45.6774C73.8775 45.6021 73.6058 45.6021 73.3502 45.6774C73.2407 45.7135 73.1396 45.7718 73.0534 45.8487C72.9693 45.922 72.9043 46.0149 72.8641 46.1193C72.819 46.2385 72.7971 46.3653 72.7993 46.4927V46.6023C72.7974 46.7287 72.8194 46.8542 72.8641 46.9723C72.9038 47.0779 72.9688 47.1721 73.0534 47.2464C73.1391 47.324 73.2403 47.3824 73.3502 47.4176C73.4767 47.4567 73.6085 47.4757 73.7408 47.4742V47.4742Z" fill="white"/>
</g>
<defs>
<clipPath id="clip0_44_24">
<rect width="109" height="48" fill="white"/>
</clipPath>
</defs>
</svg>
