<svg width="132" height="123" viewBox="0 0 132 123" fill="none" xmlns="http://www.w3.org/2000/svg">
<path d="M91.2 29C91.2 22.9552 91.2 19.9328 90.556 17.453C88.8084 10.7237 83.7139 5.46756 77.1917 3.66445C74.7882 3 71.8588 3 66 3C60.1412 3 57.2118 3 54.8083 3.66445C48.2861 5.46756 43.1916 10.7237 41.444 17.453C40.8 19.9328 40.8 22.9552 40.8 29M71.04 97.25H101.91C103.674 97.25 104.556 97.25 105.23 96.8958C105.823 96.5842 106.305 96.087 106.607 95.4755C106.95 94.7803 106.95 93.8702 106.95 92.05V76.45C106.95 74.6298 106.95 73.7197 106.607 73.0245C106.305 72.413 105.823 71.9158 105.23 71.6042C104.556 71.25 103.674 71.25 101.91 71.25H71.04C69.2758 71.25 68.3938 71.25 67.7199 71.6042C67.1272 71.9158 66.6453 72.413 66.3433 73.0245C66 73.7197 66 74.6298 66 76.45V92.05C66 93.8702 66 94.7803 66.3433 95.4755C66.6453 96.087 67.1272 96.5842 67.7199 96.8958C68.3938 97.25 69.2758 97.25 71.04 97.25ZM33.24 120H98.76C109.345 120 114.637 120 118.68 117.875C122.237 116.005 125.128 113.022 126.94 109.353C129 105.182 129 99.721 129 88.8V60.2C129 49.279 129 43.8185 126.94 39.6472C125.128 35.978 122.237 32.9949 118.68 31.1254C114.637 29 109.345 29 98.76 29H33.24C22.655 29 17.3625 29 13.3196 31.1254C9.76332 32.9949 6.87198 35.978 5.05998 39.6472C3 43.8185 3 49.279 3 60.2V88.8C3 99.721 3 105.182 5.05998 109.353C6.87198 113.022 9.76332 116.005 13.3196 117.875C17.3625 120 22.655 120 33.24 120Z" stroke="black" stroke-width="5" stroke-linecap="round" stroke-linejoin="round"/>
</svg>
