<svg width="125" height="139" viewBox="0 0 125 139" fill="none" xmlns="http://www.w3.org/2000/svg">
<path d="M118.451 37.6384L62.3748 69.4998M62.3748 69.4998L6.2984 37.6384M62.3748 69.4998L62.375 133.598M121.75 96.8836V42.1164C121.75 39.8045 121.75 38.6486 121.417 37.6177C121.122 36.7056 120.641 35.8684 120.004 35.1621C119.285 34.3636 118.297 33.8023 116.321 32.6795L67.5013 4.94131C65.6303 3.87825 64.6948 3.34671 63.7041 3.13833C62.8272 2.95389 61.9228 2.95389 61.046 3.13833C60.0553 3.34671 59.1198 3.87825 57.2488 4.94131L8.42933 32.6795C6.4533 33.8023 5.46529 34.3636 4.74584 35.1621C4.10937 35.8684 3.62771 36.7056 3.33306 37.6177C3 38.6486 3 39.8046 3 42.1164V96.8836C3 99.1955 3 100.351 3.33306 101.382C3.62771 102.294 4.10937 103.132 4.74584 103.838C5.46529 104.636 6.4533 105.198 8.42933 106.32L57.2488 134.059C59.1198 135.122 60.0553 135.653 61.046 135.862C61.9228 136.046 62.8272 136.046 63.7041 135.862C64.6948 135.653 65.6303 135.122 67.5013 134.059L116.321 106.32C118.297 105.198 119.285 104.636 120.004 103.838C120.641 103.132 121.122 102.294 121.417 101.382C121.75 100.351 121.75 99.1955 121.75 96.8836Z" stroke="black" stroke-width="5" stroke-linecap="round" stroke-linejoin="round"/>
<path d="M92.0625 52.6321L32.6875 18.8965" stroke="black" stroke-width="5" stroke-linecap="round" stroke-linejoin="round"/>
</svg>
