<svg width="30" height="29" viewBox="0 0 30 29" fill="none" xmlns="http://www.w3.org/2000/svg">
<path d="M14.6486 18.7301L10.5946 14.676M14.6486 18.7301C16.5363 18.0122 18.3471 17.1067 20.054 16.0274M14.6486 18.7301V25.4868C14.6486 25.4868 18.7432 24.7436 20.054 22.7841C21.5135 20.5949 20.054 16.0274 20.054 16.0274M10.5946 14.676C11.3137 12.8104 12.2192 11.0221 13.2973 9.33818C14.8718 6.8206 17.0643 4.74771 19.6662 3.31668C22.2681 1.88566 25.1928 1.14409 28.1621 1.16251C28.1621 4.83818 27.1081 11.2976 20.054 16.0274M10.5946 14.676H3.83782C3.83782 14.676 4.58106 10.5814 6.54052 9.27061C8.72971 7.81115 13.2973 9.27061 13.2973 9.27061M4.51349 20.7571C2.48647 22.4598 1.81079 27.5139 1.81079 27.5139C1.81079 27.5139 6.86485 26.8382 8.56755 24.8112C9.52701 23.676 9.51349 21.9328 8.44593 20.8787C7.92066 20.3774 7.22876 20.0877 6.50299 20.0652C5.77722 20.0428 5.06873 20.2892 4.51349 20.7571Z" stroke="white" stroke-width="2" stroke-linecap="round" stroke-linejoin="round"/>
</svg>
