<svg width="27" height="27" viewBox="0 0 27 27" fill="none" xmlns="http://www.w3.org/2000/svg">
<path d="M7.59451 13.3243L11.6486 17.3784L19.7567 9.27028M7.99991 25.4865H19.3513C21.6217 25.4865 22.757 25.4865 23.6242 25.0446C24.387 24.656 25.0072 24.0358 25.3959 23.2729C25.8378 22.4057 25.8378 21.2705 25.8378 19V7.64866C25.8378 5.37817 25.8378 4.24293 25.3959 3.37572C25.0072 2.6129 24.387 1.99271 23.6242 1.60404C22.757 1.16217 21.6217 1.16217 19.3513 1.16217H7.99991C5.72943 1.16217 4.59419 1.16217 3.72698 1.60404C2.96416 1.99271 2.34397 2.6129 1.95529 3.37572C1.51343 4.24293 1.51343 5.37817 1.51343 7.64866V19C1.51343 21.2705 1.51343 22.4057 1.95529 23.2729C2.34397 24.0358 2.96416 24.656 3.72698 25.0446C4.59419 25.4865 5.72943 25.4865 7.99991 25.4865Z" stroke="white" stroke-width="2" stroke-linecap="round" stroke-linejoin="round"/>
</svg>
