<svg width="30" height="27" viewBox="0 0 30 27" fill="none" xmlns="http://www.w3.org/2000/svg">
<path d="M8.59454 11.973H4.67562C3.9188 11.973 3.54038 11.973 3.25131 12.1203C2.99704 12.2498 2.79031 12.4566 2.66075 12.7108C2.51346 12.9999 2.51346 13.3783 2.51346 14.1351V25.4865M20.7567 11.973H24.6756C25.4325 11.973 25.8109 11.973 26.0999 12.1203C26.3542 12.2498 26.5609 12.4566 26.6905 12.7108C26.8378 12.9999 26.8378 13.3783 26.8378 14.1351V25.4865M20.7567 25.4865V5.48649C20.7567 3.97284 20.7567 3.21601 20.4621 2.63787C20.203 2.12933 19.7895 1.71586 19.281 1.45675C18.7029 1.16217 17.946 1.16217 16.4324 1.16217H12.9189C11.4052 1.16217 10.6484 1.16217 10.0702 1.45675C9.5617 1.71586 9.14824 2.12933 8.88912 2.63787C8.59454 3.21601 8.59454 3.97284 8.59454 5.48649V25.4865M28.1891 25.4865H1.16211M13.3243 6.56758H16.027M13.3243 11.973H16.027M13.3243 17.3784H16.027" stroke="white" stroke-width="2" stroke-linecap="round" stroke-linejoin="round"/>
</svg>
