<svg width="27" height="30" viewBox="0 0 27 30" fill="none" xmlns="http://www.w3.org/2000/svg">
<path d="M20.081 25.4865H19.8108C17.5403 25.4865 16.405 25.4865 15.5378 25.0446C14.775 24.656 14.1548 24.0358 13.7661 23.2729C13.3243 22.4057 13.3243 21.2705 13.3243 19V10.3514C13.3243 8.08088 13.3243 6.94564 13.7661 6.07843C14.1548 5.31561 14.775 4.69541 15.5378 4.30674C16.405 3.86487 17.5403 3.86487 19.8108 3.86487H20.081M20.081 25.4865C20.081 26.9792 21.2911 28.1892 22.7837 28.1892C24.2764 28.1892 25.4864 26.9792 25.4864 25.4865C25.4864 23.9938 24.2764 22.7838 22.7837 22.7838C21.2911 22.7838 20.081 23.9938 20.081 25.4865ZM20.081 3.86487C20.081 5.35753 21.2911 6.56758 22.7837 6.56758C24.2764 6.56758 25.4864 5.35753 25.4864 3.86487C25.4864 2.37221 24.2764 1.16217 22.7837 1.16217C21.2911 1.16217 20.081 2.37221 20.081 3.86487ZM6.56751 14.6757L20.081 14.6757M6.56751 14.6757C6.56751 16.1683 5.35747 17.3784 3.86481 17.3784C2.37215 17.3784 1.16211 16.1683 1.16211 14.6757C1.16211 13.183 2.37215 11.973 3.86481 11.973C5.35747 11.973 6.56751 13.183 6.56751 14.6757ZM20.081 14.6757C20.081 16.1683 21.2911 17.3784 22.7837 17.3784C24.2764 17.3784 25.4864 16.1683 25.4864 14.6757C25.4864 13.183 24.2764 11.973 22.7837 11.973C21.2911 11.973 20.081 13.183 20.081 14.6757Z" stroke="white" stroke-width="2" stroke-linecap="round" stroke-linejoin="round"/>
</svg>
